#define c66c7285344d47b789c5742941e52dd2f33E9RaUxJNkutkE_width 8
#define c66c7285344d47b789c5742941e52dd2f33E9RaUxJNkutkE_height 8
static char c66c7285344d47b789c5742941e52dd2f33E9RaUxJNkutkE_bits[] = {
  0x00, 0x3C, 0x7E, 0x7E, 0x7E, 0x7E, 0x3C, 0x00, };
