#define d773fe8ff720486dbe5ebab6203b3012wF0CkPj0QcWUHzfV_width 8
#define d773fe8ff720486dbe5ebab6203b3012wF0CkPj0QcWUHzfV_height 8
static char d773fe8ff720486dbe5ebab6203b3012wF0CkPj0QcWUHzfV_bits[] = {
  0x00, 0x3C, 0x42, 0x5A, 0x5A, 0x42, 0x3C, 0x00, };
